<svg xmlns="http://www.w3.org/2000/svg" viewBox="0 0 517.2 304.6"><defs><style>.cls-1{fill:#d5387c}.cls-2{fill:#32afd9}</style></defs><path d="M402.8.2l-10.3 10.3h8.1L411 .1h-8.1zM435.5.2l-10.3 10.3h8.2L443.6.1h-8.1zM468.2.2l-10.3 10.3h8.2L476.3.1h-8.1zM500.9.2l-10.3 10.3h8.2L509 .1H501zM272 .2l-10.4 10.3h8.2L280.1.1h-8.2zM304.6.2l-10.2 10.3h8.1L312.8.1h-8.2zM337.4.2L327 10.5h8.1L345.5.1h-8.1zM370 .2l-10.2 10.3h8.1L378.2.1h-8.1zM141.1.2l-10.3 10.3h8.2L149.3.1H141zM173.8.2l-10.3 10.3h8.2L182 .1h-8.2zM206.5.2l-10.3 10.3h8.2L214.7.1h-8.2zM239.2.2L229 10.5h8.2L247.4.1h-8.2zM43 .2L32.7 10.5H41L51.2.1H43zM75.7.2L65.4 10.5h8.2L83.9.1h-8.2zM108.4.2L98.1 10.5h8.2L116.6.1h-8.2z" class="cls-1"/><path d="M419.1.2l-10.3 10.3h8.2L427.3.1H419zM451.8.2l-10.3 10.3h8.2L460 .1h-8.2zM484.5.2l-10.3 10.3h8.2L492.7.1h-8.2zM288.3.2L278 10.5h8.2L296.5.1h-8.2zM321 .2l-10.3 10.3h8.2L329.2.1H321zM353.7.2l-10.3 10.3h8.2L361.9.1h-8.2zM386.4.2l-10.3 10.3h8.2L394.6.1h-8.2zM157.5.2l-10.3 10.3h8.1L165.6.1h-8.1zM190.2.2l-10.3 10.3h8.2L198.3.1h-8.1zM222.9.2l-10.3 10.3h8.2L231 .1H223zM255.6.2l-10.3 10.3h8.2L263.7.1h-8.1zM26.6.2L16.3 10.5h8.2L34.8.1h-8.2zM59.3.2L49.1 10.5h8.1L67.5.1h-8.2zM92 .2L81.8 10.5h8.1L100.2.1H92zM124.8.2l-10.3 10.3h8.1L133 .1h-8.1z" class="cls-2"/><path d="M10.4 106.3L.1 116.6v-8.2l10.3-10.3v8.2zM10.4 73.6L.1 83.9v-8.2l10.3-10.3v8.2zM10.4 40.9L.1 51.2V43l10.3-10.3V41zM18.4.2h-8V0L.1 10.3l-.1.1h.1v8l8-8L18.5.3zM10.4 237.1L.1 247.4v-8.2L10.4 229v8.2zM10.4 204.4L.1 214.7v-8.2l10.3-10.3v8.2zM10.4 171.7L.1 182v-8.2l10.3-10.3v8.2zM10.4 139L.1 149.3V141l10.3-10.3v8.2zM10.4 269.8L.1 280.1v-8.2l10.3-10.2v8.1z" class="cls-1"/><path d="M10.4 90L.1 100.1V92l10.3-10.2v8.1zM10.4 57.2L.1 67.5v-8.2l10.3-10.2v8.1zM10.4 24.5L.1 34.8v-8.2l10.3-10.3v8.2zM10.4 220.8L.1 231V223l10.3-10.3v8.2zM10.4 188L.1 198.4v-8.1l10.3-10.3v8.2zM10.4 155.3L.1 165.6v-8.1l10.3-10.3v8.1zM10.4 122.6L.1 133v-8.2l10.3-10.2v8.1zM10.4 286.2L.1 296.5v-8.2L10.4 278v8.2zM10.4 253.5L.1 263.7v-8.1l10.3-10.3v8.2z" class="cls-2"/><path d="M517.2 122.8L507 133.1v-8.2l10.2-10.3v8.2zM517.2 90L507 100.5v-8.2L517.2 82v8.2zM517.2 57.4L507 67.7v-8.2l10.2-10.3v8.2zM517.2 24.7L507 35v-8.2l10.2-10.3v8.2zM517.2 253.6L507 264v-8.1l10.2-10.3v8.1zM517.2 221L507 231.1V223l10.2-10.2v8.1zM517.2 188.2L507 198.5v-8.2l10.2-10.2v8.1zM517.2 155.5L507 165.8v-8.2l10.2-10.3v8.2z" class="cls-1"/><path d="M517.2 106.4L507 116.7v-8.1l10.2-10.3v8.1zM517.2 73.7L507 84V76l10.2-10.3v8.1zM517.2 41L507 51.3v-8.1l10.2-10.3V41zM517.2 237.3L507 247.6v-8.2l10.2-10.3v8.2zM517.2 204.6L507 214.9v-8.2l10.2-10.3v8.2zM517.2 171.9L507 182V174l10.2-10.3v8.2zM517.2 139.2L507 149.3v-8.1l10.2-10.3v8.2zM517.2 270L507 280.3V272l10.2-10.3v8.2z" class="cls-2"/><path d="M402.9 294.4l-10.3 10.2h8.2l10.3-10.2h-8.2zM435.6 294.4l-10.3 10.2h8.2l10.3-10.2h-8.2zM468.3 294.4L458 304.6h8.2l10.3-10.2h-8.2zM507 288.5l-6 5.9-10.3 10.2h8.2l8-8 10.3-10.3v-8.1L507 288.5zM272 294.4l-10.2 10.2h8.1l10.3-10.2h-8.1zM304.8 294.4l-10.3 10.2h8.1l10.3-10.2h-8.1zM337.5 294.4l-10.3 10.2h8.2l10.2-10.2h-8.1zM370.2 294.4l-10.3 10.2h8.2l10.2-10.2h-8.1zM141.2 294.4L131 304.6h8.2l10.3-10.2h-8.2zM174 294.4l-10.3 10.2h8.1l10.3-10.2h-8.2zM206.7 294.4l-10.3 10.2h8.1l10.3-10.2h-8.2zM239.3 294.4l-10.2 10.2h8.1l10.3-10.2h-8.2zM10.4 294.4L.1 304.6h8.2l10.3-10.2h-8.2zM43.1 294.4l-10.3 10.2H41l10.3-10.2H43zM75.8 294.4l-10.3 10.2h8.2L84 294.4h-8.2zM108.5 294.4l-10.3 10.2h8.2l10.3-10.2h-8.2z" class="cls-1"/><path d="M419.3 294.4L409 304.6h8.1l10.3-10.2h-8.1zM452 294.4l-10.3 10.2h8.1l10.3-10.2H452zM484.7 294.4l-10.3 10.2h8.1l10.3-10.2h-8.1zM515.2 304.6l2-2v-8l-10 10h8zM288.4 294.4l-10.3 10.2h8.2l10.3-10.2h-8.2zM321.1 294.4l-10.3 10.2h8.2l10.3-10.2H321zM353.8 294.4l-10.3 10.2h8.2l10.3-10.2h-8.2zM386.5 294.4l-10.2 10.2h8.1l10.3-10.2h-8.2zM157.6 294.4l-10.3 10.2h8.2l10.3-10.2h-8.2zM190.3 294.4L180 304.6h8.2l10.3-10.2h-8.2zM223 294.4l-10.3 10.2h8.2l10.3-10.2H223zM255.7 294.4l-10.3 10.2h8.2l10.3-10.2h-8.2zM26.8 294.4l-10.3 10.2h8.1L35 294.4h-8.1zM59.5 294.4l-10.3 10.2h8.1l10.3-10.2h-8.1zM92.2 294.4l-10.3 10.2H90l10.3-10.2h-8.1zM124.9 294.4l-10.3 10.2h8.2l10.2-10.2H125zM507 10.4v8.2l8.1-8.2 2.1-2V.1L507 10.5z" class="cls-2"/></svg>
