<?xml version="1.0" encoding="utf-8"?>
<!-- Generator: Adobe Illustrator 22.0.1, SVG Export Plug-In . SVG Version: 6.00 Build 0)  -->
<svg version="1.1" id="Layer_1" xmlns="http://www.w3.org/2000/svg" xmlns:xlink="http://www.w3.org/1999/xlink" x="0px" y="0px"
	 viewBox="0 0 130 140" style="enable-background:new 0 0 130 140;" xml:space="preserve">
<style type="text/css">
	.st0{fill:#0072C6;}
	.st1{opacity:0.17;fill:#FFFFFF;enable-background:new    ;}
	.st2{opacity:0.72;fill:#FFFFFF;enable-background:new    ;}
	.st3{opacity:0.28;fill:#FFFFFF;enable-background:new    ;}
	.st4{opacity:0.86;fill:#FFFFFF;enable-background:new    ;}
	.st5{opacity:0.31;fill:#FFFFFF;enable-background:new    ;}
	.st6{opacity:0.63;fill:#FFFFFF;enable-background:new    ;}
	.st7{fill:#1B348E;}
	.st8{opacity:0.59;fill:#FFFFFF;enable-background:new    ;}
</style>
<title>Artboard 30</title>
<g id="_1180_Grids">
	<g>
		<polyline class="st0" points="37.2,14.6 116.1,41.6 116.1,80.2 100.7,125.4 13.9,108 37.2,14.6 		"/>
		<path class="st1" d="M100.7,125.4c-0.3-0.8,0-58.3,0-58.3l15.4,13.1L100.7,125.4z"/>
		<polygon class="st2" points="116.1,41.6 116.1,80.2 100.7,67.1 		"/>
		<polygon class="st2" points="37.2,14.6 116.1,41.6 100.7,67.1 		"/>
		<polygon class="st3" points="42.6,59.1 100.7,67.1 13.9,108 		"/>
		<polygon class="st4" points="42.6,59.1 37.2,14.6 100.7,67.1 		"/>
		<polygon class="st5" points="100.7,67.1 116.1,41.6 88.8,32.2 		"/>
		<polygon class="st6" points="13.9,108 72.6,110.6 100.7,67.1 		"/>
		<polygon class="st0" points="100.7,125.4 72.6,110.6 100.7,67.1 		"/>
		<polygon class="st7" points="13.9,108 100.7,125.4 72.6,110.6 		"/>
		<polygon class="st8" points="42.6,59.1 13.9,108 37.2,14.6 		"/>
	</g>
</g>
</svg>
