<svg xmlns="http://www.w3.org/2000/svg" viewBox="0 0 16 16">
    <path style="line-height:normal;text-indent:0;text-align:start;text-decoration-line:none;text-decoration-style:solid;text-decoration-color:#000;text-transform:none;block-progression:tb;isolation:auto;mix-blend-mode:normal" d="M 7.5117188 1 A 0.50005 0.50005 0 0 0 7.0292969 1.3300781 L 6.0507812 4.046875 L 2.7578125 2.0703125 A 0.50005 0.50005 0 0 0 2.5195312 2 A 0.50005 0.50005 0 0 0 2.0703125 2.7578125 L 4.046875 6.0507812 L 1.3300781 7.0292969 A 0.50005 0.50005 0 0 0 1.3300781 7.9707031 L 4.046875 8.9492188 L 2.0703125 12.242188 A 0.50005 0.50005 0 0 0 2.7578125 12.929688 L 6.0507812 10.953125 L 7.0292969 13.669922 A 0.50005 0.50005 0 0 0 7.9707031 13.669922 L 8.9492188 10.953125 L 12.242188 12.929688 A 0.50005 0.50005 0 0 0 12.929688 12.242188 L 10.953125 8.9492188 L 13.669922 7.9707031 A 0.50005 0.50005 0 0 0 13.669922 7.0292969 L 10.953125 6.0507812 L 12.929688 2.7578125 A 0.50005 0.50005 0 0 0 12.242188 2.0703125 L 8.9492188 4.046875 L 7.9707031 1.3300781 A 0.50005 0.50005 0 0 0 7.5117188 1 z M 7.5 2.9765625 L 8.0742188 4.5722656 L 7.5 4.9160156 L 6.9257812 4.5722656 L 7.5 2.9765625 z M 3.9609375 3.9609375 L 7.2421875 5.9296875 A 0.50005 0.50005 0 0 0 7.7578125 5.9296875 L 11.039062 3.9609375 L 9.0703125 7.2421875 A 0.50005 0.50005 0 0 0 9.0703125 7.7578125 L 11.039062 11.039062 L 7.7578125 9.0703125 A 0.50005 0.50005 0 0 0 7.2421875 9.0703125 L 3.9609375 11.039062 L 5.9296875 7.7578125 A 0.50005 0.50005 0 0 0 5.9296875 7.2421875 L 3.9609375 3.9609375 z M 4.5722656 6.9257812 L 4.9160156 7.5 L 4.5722656 8.0742188 L 2.9765625 7.5 L 4.5722656 6.9257812 z M 10.427734 6.9257812 L 12.023438 7.5 L 10.427734 8.0742188 L 10.083984 7.5 L 10.427734 6.9257812 z M 7.5 10.083984 L 8.0742188 10.427734 L 7.5 12.023438 L 6.9257812 10.427734 L 7.5 10.083984 z" font-weight="400" font-family="sans-serif" white-space="normal" overflow="visible"></path>
</svg>
